<svg width="185" height="50" viewBox="0 0 185 50" fill="none" xmlns="http://www.w3.org/2000/svg">
<path d="M60.6734 44.6615C60.1272 44.9572 59.4319 45.1051 58.6125 45.1051C57.5448 45.1051 56.7006 44.76 56.0798 44.0946C55.4342 43.4291 55.1362 42.5418 55.1362 41.4326C55.1362 40.2495 55.4839 39.3129 56.2039 38.5735C56.924 37.8587 57.8179 37.489 58.9353 37.489C59.6306 37.489 60.2265 37.5876 60.6983 37.7848V38.6967C60.1768 38.401 59.5809 38.2531 58.9353 38.2531C58.0911 38.2531 57.3958 38.5242 56.8495 39.0911C56.3281 39.658 56.055 40.4221 56.055 41.3587C56.055 42.246 56.3033 42.9608 56.7999 43.503C57.2965 44.0453 57.9421 44.2917 58.7615 44.2917C59.5064 44.2917 60.152 44.1192 60.6983 43.7988V44.6615H60.6734Z" fill="#EA5B0C"/>
<path d="M68.1724 44.9573H67.3033V39.6334C67.3033 39.1651 67.3282 38.82 67.353 38.6228H67.3282C67.2537 38.7954 67.1792 38.9433 67.0799 39.0911L63.256 44.9573H62.1882V37.5876H63.0573V42.7883C63.0573 43.3552 63.0325 43.7002 63.0076 43.8728H63.0325C63.107 43.7249 63.2063 43.5524 63.3304 43.3798L67.055 37.5876H68.1724V44.9573Z" fill="#EA5B0C"/>
<path d="M75.1993 44.6615C74.6531 44.9572 73.9578 45.1051 73.1384 45.1051C72.0707 45.1051 71.2264 44.76 70.6057 44.0946C69.9601 43.4291 69.6621 42.5418 69.6621 41.4326C69.6621 40.2495 70.0097 39.3129 70.7298 38.5735C71.4499 37.8587 72.3438 37.489 73.4612 37.489C74.1564 37.489 74.7524 37.5876 75.2242 37.7848V38.6967C74.7027 38.401 74.1068 38.2531 73.4612 38.2531C72.6169 38.2531 71.9217 38.5242 71.3754 39.0911C70.854 39.658 70.5808 40.4221 70.5808 41.3587C70.5808 42.246 70.8291 42.9608 71.3258 43.503C71.8224 44.0453 72.468 44.2917 73.2874 44.2917C74.0323 44.2917 74.6779 44.1192 75.2242 43.7988V44.6615H75.1993Z" fill="#EA5B0C"/>
<path d="M81.0843 38.3764H78.9488V44.9573H78.0798V38.3764H75.9443V37.5876H81.1091V38.3764H81.0843Z" fill="#EA5B0C"/>
<path d="M86.1993 44.9573H82.2512V37.5876H86.0255V38.3764H83.1203V40.8165H85.802V41.5806H83.1203V44.1685H86.1993V44.9573Z" fill="#EA5B0C"/>
<path d="M95.1879 44.9573H94.3188V40.0031C94.3188 39.6087 94.3437 39.1404 94.3933 38.5735C94.3188 38.894 94.2443 39.1404 94.1698 39.2883L91.6371 44.9573H91.215L88.6823 39.3376C88.6078 39.1651 88.5333 38.9186 88.4588 38.5735H88.434C88.4588 38.8693 88.4836 39.3376 88.4836 40.0278V44.9573H87.6394V37.5876H88.7816L91.066 42.739C91.2398 43.1333 91.364 43.4291 91.4137 43.6263H91.4385C91.5875 43.2319 91.7116 42.9115 91.7861 42.7143L94.1202 37.5876H95.2127V44.9573H95.1879Z" fill="#EA5B0C"/>
<path d="M102.736 44.9573H101.867V41.6052H98.0185V44.9573H97.1494V37.5876H98.0185V40.8165H101.867V37.5876H102.736V44.9573Z" fill="#EA5B0C"/>
<path d="M110.434 44.9573H109.465L108.671 42.8869H105.517L104.772 44.9573H103.829L106.684 37.5876H107.578L110.434 44.9573ZM108.398 42.1228L107.231 38.9926C107.181 38.894 107.156 38.7214 107.106 38.4996H107.082C107.057 38.6968 107.007 38.8693 106.958 38.9926L105.79 42.1228H108.398Z" fill="#EA5B0C"/>
<path d="M115.847 44.9573H114.978V41.827H113.885C113.687 41.827 113.488 41.8763 113.339 41.9996C113.19 42.1228 113.016 42.3693 112.842 42.739L111.899 44.9573H110.856L111.973 42.4925C112.048 42.32 112.147 42.1721 112.296 41.9749C112.445 41.8024 112.619 41.6791 112.818 41.5806V41.5559C112.321 41.4573 111.949 41.2355 111.675 40.8904C111.402 40.5454 111.253 40.1263 111.253 39.658C111.253 39.0419 111.477 38.5243 111.924 38.1545C112.371 37.7848 112.942 37.5876 113.662 37.5876H115.822V44.9573H115.847ZM114.953 41.0383V38.3764H113.761C113.265 38.3764 112.892 38.4996 112.619 38.7214C112.346 38.9433 112.222 39.2637 112.222 39.6827C112.222 40.1017 112.371 40.4221 112.644 40.6686C112.917 40.9151 113.289 41.0383 113.761 41.0383H114.953Z" fill="#EA5B0C"/>
<path d="M126.673 44.9573H125.804V39.6334C125.804 39.1651 125.829 38.82 125.854 38.6228H125.829C125.754 38.7954 125.68 38.9433 125.581 39.0911L121.757 44.9573H120.689V37.5876H121.558V42.7883C121.558 43.3552 121.533 43.7002 121.508 43.8728H121.533C121.608 43.7249 121.707 43.5524 121.831 43.3798L125.556 37.5876H126.673V44.9573Z" fill="#EA5B0C"/>
<path d="M134.222 44.9573H133.353V41.6052H129.504V44.9573H128.635V37.5876H129.504V40.8165H133.353V37.5876H134.222V44.9573Z" fill="#EA5B0C"/>
<path d="M140.553 38.3764H138.418V44.9573H137.549V38.3764H135.414V37.5876H140.578V38.3764H140.553Z" fill="#EA5B0C"/>
<path d="M145.669 44.9573H141.72V37.5876H145.495V38.3764H142.59V40.8165H145.271V41.5806H142.59V44.1685H145.644V44.9573H145.669Z" fill="#EA5B0C"/>
<path d="M150.957 38.401H147.978V44.9819H147.109V37.6123H150.957V38.401Z" fill="#EA5B0C"/>
<path d="M152.969 42.1721V44.9573H152.1V37.5876H154.136C154.93 37.5876 155.551 37.7848 155.973 38.1545C156.42 38.5489 156.619 39.0911 156.619 39.7813C156.619 40.4714 156.37 41.063 155.899 41.5066C155.402 41.9503 154.756 42.1721 153.937 42.1721H152.969ZM152.969 38.3764V41.408H153.887C154.483 41.408 154.955 41.2601 155.253 40.989C155.576 40.7179 155.725 40.3235 155.725 39.8306C155.725 38.8693 155.154 38.3764 153.987 38.3764H152.969Z" fill="#EA5B0C"/>
<path d="M163.795 44.9573H162.826L162.032 42.8869H158.878L158.133 44.9573H157.165L160.021 37.5876H160.914L163.795 44.9573ZM161.759 42.1228L160.592 38.9926C160.542 38.894 160.517 38.7214 160.467 38.4996H160.443C160.418 38.6968 160.368 38.8693 160.319 38.9926L159.151 42.1228H161.759Z" fill="#EA5B0C"/>
<path d="M171.467 46.9291H170.673V44.9573H164.887V37.5876H165.756V44.1685H169.605V37.5876H170.474V44.1685H171.467V46.9291Z" fill="#EA5B0C"/>
<path d="M178.743 44.9573H177.874V39.6334C177.874 39.1651 177.898 38.82 177.923 38.6228H177.898C177.824 38.7954 177.749 38.9433 177.65 39.0911L173.826 44.9573H172.759V37.5876H173.628V42.7883C173.628 43.3552 173.603 43.7002 173.578 43.8728H173.603C173.677 43.7249 173.777 43.5524 173.901 43.3798L177.625 37.5876H178.743V44.9573Z" fill="#EA5B0C"/>
<path d="M185 44.9573H184.131V41.827H183.038C182.84 41.827 182.641 41.8763 182.492 41.9996C182.343 42.1228 182.169 42.3693 181.995 42.739L181.052 44.9573H180.009L181.126 42.4925C181.201 42.32 181.3 42.1721 181.449 41.9749C181.598 41.8024 181.772 41.6791 181.971 41.5806V41.5559C181.474 41.4573 181.102 41.2355 180.828 40.8904C180.555 40.5454 180.406 40.1263 180.406 39.658C180.406 39.0419 180.63 38.5243 181.077 38.1545C181.524 37.7848 182.095 37.5876 182.815 37.5876H184.975V44.9573H185ZM184.131 41.0383V38.3764H182.914C182.418 38.3764 182.045 38.4996 181.772 38.7214C181.499 38.9433 181.375 39.2637 181.375 39.6827C181.375 40.1017 181.524 40.4221 181.797 40.6686C182.07 40.9151 182.442 41.0383 182.914 41.0383H184.131Z" fill="#EA5B0C"/>
<path fill-rule="evenodd" clip-rule="evenodd" d="M23.5021 0.147885C23.5021 0.172533 23.5021 0.172533 23.5021 0.147885C23.4524 0.369713 23.4524 0.369713 23.4028 0.591541C23.378 0.690132 23.6759 0.788722 24.0732 0.764074C25.4886 0.739427 25.4886 0.739427 26.8791 0.788722C27.028 1.74998 27.028 1.74998 27.1522 3.10559C22.8317 1.30632 22.8317 1.30632 19.5292 0.640837C19.852 0.295771 19.9265 0.221828 20.1252 0.0985902C20.2493 0.147885 20.3238 0.221828 20.8204 0.147885C21.913 0.0985902 22.782 0.0492951 23.5021 0V0.147885ZM38.5742 3.69713C39.046 4.16544 39.4681 4.70768 40.4365 5.96471C40.5607 6.18654 40.9083 6.48231 41.1566 6.60555C41.1566 6.60555 41.1566 6.60555 41.1815 6.6302C42.0505 7.0985 42.0505 7.0985 42.8203 7.5668C42.9444 7.78863 42.9444 7.78863 43.0934 7.98581C41.8767 7.27103 41.8767 7.27103 40.4614 6.60555C40.4365 6.5809 40.4117 6.55625 40.362 6.5316C35.7187 3.10559 35.7187 3.10559 31.1499 0.862665C33.037 1.28167 33.037 1.28167 34.7752 1.79927C35.1228 2.16899 35.1228 2.16899 35.4953 2.58799C35.5946 2.73588 35.967 2.93306 36.2898 3.0563C37.1589 3.37672 37.1589 3.37672 37.9535 3.69713C38.3508 3.86967 38.4749 3.82037 38.5742 3.69713ZM49.599 18.7075C49.6238 18.8061 49.6487 18.9293 49.6735 19.0279C49.748 19.3237 49.8225 19.6195 49.897 19.6441C49.897 19.6688 49.897 19.6688 49.897 19.6688C49.9963 19.792 50.046 19.8166 50.0956 19.8906C50.1453 20.0878 50.1701 20.3096 50.2198 20.5068C49.9963 20.2356 49.9715 20.211 49.4997 19.8906C49.4997 19.8659 49.4749 19.8413 49.4749 19.8166C47.2898 15.2075 47.2898 15.2075 43.739 10.4259C45.3778 11.3379 45.3778 11.3379 46.6193 12.2498C47.0166 13.1864 47.0166 13.1864 47.3643 14.1723C47.4636 14.4928 47.6622 14.8378 47.8112 14.9611L48.4568 15.5033C48.5561 15.6512 49.3259 17.8695 49.599 18.7075ZM50.3936 21.7392C49.5742 21.1476 49.6238 21.1723 47.1656 20.4575C46.9421 20.4082 46.7187 20.0138 46.669 19.5702C46.669 19.5702 46.669 19.5702 46.669 19.5455C46.4455 18.0174 46.4207 18.0174 46.1476 16.5385C45.9986 16.4892 45.7751 16.4399 45.6013 16.366C46.0482 19.1265 46.0979 19.0279 46.371 21.9363C48.5313 26.5208 48.6306 26.644 49.4749 30.144C49.7977 27.7532 49.7977 27.7532 49.9218 25.2638C49.5742 25.2884 49.5742 25.2884 49.1272 25.2884C48.9782 25.313 48.8789 24.968 48.8789 24.5983C48.8789 24.5736 48.8789 24.5736 48.8789 24.5736C48.8541 23.5877 48.8541 23.5877 48.8044 22.6018C48.7796 22.2075 48.8789 21.9117 49.0031 21.9363C49.0031 21.9363 49.0031 21.9363 49.0279 21.9363C50.0956 22.2814 50.1949 22.3307 50.4929 22.5525C50.4432 22.3307 50.4184 22.0349 50.3936 21.7392ZM46.52 38.4995C46.6442 37.5382 46.5945 37.415 46.0234 35.4432C47.116 34.8763 47.116 34.8763 47.985 34.2601C47.7864 35.665 47.2649 37.3904 46.52 38.4995ZM45.9241 39.3622C45.8496 39.4854 45.7503 39.584 45.6758 39.7072C45.0302 40.3727 44.906 40.4713 43.8383 41.334C44.3349 40.4959 44.3349 40.4959 44.8315 39.5347C44.9557 39.2636 44.906 39.1403 44.7074 39.2882C44.186 39.6086 44.186 39.6086 43.6148 39.9291C43.4907 40.003 43.3169 40.2002 43.1927 40.3481C42.9444 40.6931 42.4478 41.5804 42.0505 42.1966C41.4546 43.1579 40.809 43.9959 39.8158 44.76C41.4546 42.4431 41.6284 41.9994 43.4907 37.4889C43.59 37.1192 43.441 36.8974 43.1431 37.0206C42.0009 37.3904 42.0009 37.3904 40.7345 37.7354C40.809 37.4643 40.809 37.4643 40.8587 37.2178C42.9941 36.6263 42.9941 36.6263 44.7819 35.9854C45.7999 38.1791 45.8248 38.2284 45.9241 39.3622ZM36.0415 47.2001C35.5449 47.2001 34.8993 47.1754 33.6578 46.8797C35.6691 46.3374 35.6691 46.3374 37.5065 45.7212C37.2334 46.1649 36.712 47.0522 36.0415 47.2001ZM36.116 47.5698C35.0235 48.0874 33.8813 48.5311 32.6894 48.9008C33.0619 48.5311 32.8881 48.4571 32.2425 48.605C31.9445 48.6789 31.8948 48.6789 31.3734 48.8022C31.3237 48.8022 31.2492 48.8268 31.1747 48.8268C30.8768 48.8761 30.6036 48.9747 30.4795 49.0487C30.4298 49.0733 30.405 49.0979 30.405 49.0979C30.1319 49.3937 30.0325 49.4677 29.8836 49.5662C29.5856 49.6155 29.2628 49.6648 28.9648 49.7141C29.4366 49.3444 29.4863 49.2458 30.107 47.9642C30.1567 47.8163 29.9332 47.6437 29.5608 47.6684C29.5856 47.6191 29.5856 47.6437 29.6353 47.5205C30.1319 47.4712 30.7278 47.3726 31.6465 47.2494C31.6714 47.2494 31.6714 47.2494 31.6714 47.2494C34.4524 47.7916 34.6014 47.8409 36.116 47.5698ZM27.8971 49.936C27.1274 50.0099 26.3328 50.0099 25.5382 49.9853C24.8926 49.9606 24.3215 49.936 23.8497 49.9113L23.8746 49.8867C23.8249 49.7634 23.8249 49.7634 23.7752 49.5662C23.7752 49.4923 23.4524 49.4184 23.08 49.3937C21.913 49.2951 21.913 49.2951 20.7459 49.1472C20.4728 48.6296 20.3735 48.6296 20.0755 47.9149C22.7572 48.8515 23.8001 49.1965 25.0416 49.443C25.861 49.6155 27.1274 49.862 27.9219 49.8867L27.8971 49.936ZM4.01013 38.7213C6.02141 40.7178 6.17039 40.7917 9.96946 42.9607C10.2923 43.1086 10.4412 42.9854 10.2923 42.7142C9.96946 41.9748 9.96946 41.9748 9.59701 41.1368C9.47285 40.841 9.12523 40.4713 8.80243 40.3481C7.78438 39.9291 7.78438 39.9291 6.86565 39.51C6.0959 37.3904 6.0959 37.3904 5.42547 34.9749C9.87014 40.1016 9.87014 40.1016 15.0846 44.4889C15.1094 44.5135 15.159 44.5381 15.2087 44.5628C15.8295 46.0416 15.8295 46.0416 16.4006 47.1754C16.0778 47.1015 16.0778 47.1015 15.7301 47.0029C15.4074 46.436 15.4074 46.436 15.0597 45.7705C14.9604 45.5733 14.6624 45.3515 14.3645 45.2529C14.2403 45.179 14.1162 45.1297 13.992 45.105C8.97624 43.1086 8.97624 43.1086 5.62412 40.8164C5.40064 40.5699 4.5564 39.6579 4.01013 38.7213ZM0.335212 29.9961C0.285551 29.7743 0.260721 29.5771 0.21106 29.3552C0.310382 29.5524 0.409704 29.6264 0.782162 29.9221C0.856654 29.9714 0.906315 29.7496 0.856654 29.4045C0.732501 28.394 0.732501 28.394 0.633179 27.4081C0.608348 27.0384 0.509026 26.718 0.434535 26.718C0.21106 26.6687 0.21106 26.6687 0.0372458 26.6194C-0.0124153 24.8694 -0.0124153 24.8694 0.0372458 23.1194C0.658009 26.1264 0.757332 26.5701 1.87471 29.2567C2.12301 29.8728 2.47064 30.6862 2.81827 31.3024C3.21556 33.2989 3.16589 33.1756 3.66251 35.0735C3.48869 34.9749 3.38937 34.8763 3.24039 34.7777C2.91759 33.5946 2.91759 33.5946 2.61962 32.3376C2.54513 31.9679 2.34649 31.5735 2.1975 31.5242C0.856654 30.6616 0.757332 30.6123 0.335212 29.9961ZM2.59479 13.3097C2.76861 12.9893 2.94242 12.6688 3.11623 12.3484C3.33971 12.028 3.53835 11.8308 4.13429 11.2146C3.737 12.0527 3.737 12.0527 3.33971 12.9646C3.21556 13.2604 3.24039 13.4083 3.38937 13.285C3.38937 13.285 3.38937 13.285 3.4142 13.2604C3.86115 12.94 3.68734 13.0386 4.15912 12.7428C4.35776 12.6442 4.73022 12.1512 4.85437 11.8308C5.32615 10.9189 5.82276 9.88367 6.51802 9.24284C6.39386 9.48931 6.26971 9.73579 6.14556 9.98226C5.59929 11.1407 5.15234 12.4963 4.18395 15.3061C4.15912 15.454 4.13429 15.5526 4.15912 15.6512C4.13429 15.947 4.23361 16.1195 4.43225 16.0702C4.45708 16.0456 4.45708 16.0456 4.45708 16.0456C5.30132 15.7744 5.30132 15.7744 6.24488 15.4787C6.17039 15.873 6.17039 15.873 6.0959 16.292C4.28327 16.8343 4.28327 16.8343 2.86793 17.3519C2.89276 17.204 2.89276 17.0561 2.86793 16.9822C2.39615 14.7146 2.37132 14.5667 2.59479 13.3097ZM8.50446 6.03865C8.70311 5.79218 8.92658 5.5457 9.19972 5.24993C9.52251 4.97881 9.84531 4.73233 10.1929 4.48586C10.9379 4.43656 11.062 4.46121 12.7505 5.12669C10.9627 5.79218 10.9627 5.79218 9.39836 6.50696C9.89497 5.71824 9.89497 5.71824 10.3916 5.0281C10.5406 4.85557 10.4164 4.83092 10.1929 4.95416C9.59701 5.29923 9.59701 5.29923 9.05073 5.64429C8.82726 5.76753 8.65344 5.91542 8.50446 6.03865ZM11.1862 3.82037C11.7573 3.77108 13.4706 4.01755 14.5135 4.60909C17.1207 3.99291 17.1207 3.99291 19.9513 3.54925C20.001 3.32742 20.0507 3.15489 20.1003 2.95771C18.8091 3.13024 18.8091 3.13024 17.5676 3.37672C17.1703 3.45066 16.8972 3.35207 16.9965 3.15489C17.0213 3.13024 16.9965 3.13024 17.0213 3.10559C17.6669 1.77462 17.6173 1.94716 18.238 1.01055C18.238 0.985902 18.2629 0.961255 18.2877 0.936607C18.6602 0.591542 18.7595 0.492951 18.983 0.394361C18.7346 0.443656 18.4863 0.517599 18.2629 0.591541C17.7414 0.887312 17.6421 1.01055 16.8972 1.82392C16.8227 1.94716 16.4502 2.14434 16.1274 2.21828C15.2087 2.4894 15.2087 2.4894 14.3396 2.78517C14.3148 2.78517 14.3148 2.78517 14.3148 2.78517C14.0168 2.88376 13.8679 2.88376 13.9672 2.73588C14.3396 2.34152 14.3396 2.34152 14.7369 1.97181C13.4706 2.5387 12.3035 3.08095 11.1862 3.82037ZM43.1679 7.34497C43.4907 7.78863 43.8383 8.47876 44.1115 8.92242C44.2604 9.19354 44.186 9.26748 43.9873 9.1196C39.5426 6.97526 39.6916 6.99991 33.3598 5.37317C32.9377 5.29923 32.4659 4.97881 32.3914 4.70768C32.1431 3.82037 32.1928 3.84502 31.9693 3.08095C31.6962 3.03165 31.5472 3.007 31.2741 2.95771C31.6217 4.19009 31.5969 4.06685 31.9197 5.5457C32.0686 5.64429 32.1928 5.76753 32.317 5.84147C37.8293 10.352 37.8293 10.352 42.7954 15.7251C42.2988 13.285 42.3982 13.5315 41.827 11.3379C40.7345 10.9435 40.3869 10.7956 39.1205 10.352C38.7232 10.2534 38.3259 9.85903 38.2266 9.48931C37.9783 8.62665 37.9783 8.62665 37.73 7.81328C37.7052 7.73934 37.7052 7.66539 37.7052 7.6161C37.6307 7.34497 37.879 7.19709 38.2266 7.32033C43.0189 9.21819 43.2424 9.29213 45.9986 11.1653C46.2469 11.3379 46.4952 11.5104 46.7435 11.7076C45.7006 9.98226 44.4591 8.52806 43.1431 7.24638L43.1679 7.34497ZM32.2176 7.22174C32.5901 9.66184 32.5901 9.66184 32.9129 12.521C34.651 12.6935 34.651 12.6935 36.3147 12.8907C36.7864 12.94 37.2086 13.3836 37.2831 13.8519C37.432 15.1829 37.432 15.1829 37.581 16.5632C37.6307 17.0808 37.2831 17.4751 36.7864 17.4258C36.7864 17.4258 36.7864 17.4258 36.7616 17.4258C27.773 17.0068 28.2944 17.0068 18.7843 17.1301C18.238 17.1547 17.8159 16.7357 17.8407 16.1934C17.8407 16.1688 17.8407 16.1688 17.8407 16.1688C17.9649 14.3202 17.9649 14.3202 18.1139 12.5703C17.7911 12.5949 17.2696 12.5949 16.922 12.6196C16.6737 15.3801 16.6737 15.3801 16.4999 18.3624C16.5247 18.3624 16.5247 18.3624 16.5247 18.3871C22.633 24.4997 22.633 24.4997 29.0642 30.8341C29.1138 27.4574 29.1138 27.7039 29.1138 24.2779C26.9536 24.2779 26.9536 24.2779 24.7685 24.2779C24.1725 24.2779 23.6759 23.7849 23.6759 23.1934C23.6759 23.1687 23.6759 23.1687 23.6759 23.1687C23.6759 21.7145 23.6511 21.2708 23.6759 19.8413C23.6759 19.2497 24.1725 18.7814 24.7685 18.7814C34.1048 18.9786 34.1296 19.1758 41.7277 19.7427C41.9264 19.7673 42.1002 19.8659 42.2243 20.0385C42.4726 20.1864 42.6713 20.5314 42.6961 20.9258C42.7706 22.6265 42.7706 22.6265 42.8203 24.3764C43.1679 24.3764 43.3169 24.3764 43.6645 24.4011C43.5404 21.1723 43.4659 20.6547 43.0934 18.0667C43.0437 18.0174 43.0189 17.9927 42.9941 17.9434C37.9783 12.2252 37.9783 12.2252 32.2176 7.22174ZM25.861 21.0983C25.861 21.3694 25.8858 21.8131 25.8858 22.0842C27.8723 22.1335 28.2944 22.1582 30.1815 22.2814C30.7775 22.2814 31.2492 22.7743 31.2492 23.3659C31.1251 32.8798 31.1251 32.4855 30.5788 40.4467C30.5292 40.841 30.107 41.2107 29.5608 41.2354C28.1454 41.3093 28.1454 41.3093 26.7053 41.3586C26.7053 41.3586 26.7053 41.3586 26.6804 41.3586C26.1341 41.3586 25.712 41.0382 25.712 40.6438C25.7369 39.2882 25.7369 39.2882 25.7369 37.8094C21.7143 37.7601 21.7143 37.7601 17.8159 37.5136C23.7752 42.3199 23.7752 42.3199 28.94 45.524C28.9648 45.524 28.9648 45.5487 28.9897 45.5487C32.0438 45.2036 32.0438 45.2036 34.8993 44.6614C34.9986 44.4149 34.9987 44.4149 35.0731 44.1684C33.6826 44.4396 33.6826 44.4396 32.2176 44.686C32.1928 44.686 32.1928 44.686 32.1928 44.686C31.8203 44.7353 31.4975 44.6121 31.4727 44.3903C31.3982 44.3163 31.3734 44.2177 31.3982 44.1191C32.2176 38.0065 32.2176 38.0065 32.7391 29.5771C32.7391 29.5771 32.7391 29.5771 32.7391 29.5524C32.7639 28.9855 33.2108 28.4926 33.782 28.4926C35.098 28.4433 35.098 28.4433 36.3892 28.394C36.8858 28.3693 37.2831 28.813 37.2582 29.3799C37.1341 31.3271 37.1341 31.3271 36.9851 33.2249C39.6171 32.9291 39.6171 32.9291 41.9264 32.5841C37.7797 27.556 37.7797 27.556 32.1928 21.5666C32.1431 21.4927 32.019 21.3448 31.9693 21.2708C29.1386 21.1723 28.642 21.1476 25.861 21.0983ZM34.7007 30.5383C34.9738 30.5383 35.3214 30.489 35.5946 30.4644C35.4704 32.4115 35.4704 32.4115 35.3214 34.2848C35.3214 34.2848 35.3214 34.2848 35.3214 34.3094C35.2718 34.827 35.6442 35.1721 36.1409 35.1228C40.4614 34.4326 42.0009 34.1862 43.59 33.7672C44.3349 33.57 45.0798 33.3728 46.1476 33.0524C46.9173 32.8059 47.4388 32.7813 47.6126 31.8693C47.8112 30.7848 47.8112 30.7848 47.9602 29.6757C48.0099 29.2567 47.9105 28.9609 47.7119 29.0102C47.0415 29.1581 47.0415 29.1581 46.2717 29.2813C46.4455 26.8412 46.4455 26.8412 46.4952 24.4257C48.3823 28.5665 48.3823 28.5665 49.0776 31.6968C49.0776 31.7214 49.0776 31.7214 49.0776 31.7461C48.9286 32.1158 48.7796 32.4855 48.6058 32.8306C48.581 32.8059 48.5561 32.8059 48.5313 32.8306C45.7254 34.2848 45.7254 34.2848 40.6848 35.7143C40.6352 35.7143 40.5855 35.739 40.5359 35.7636C40.511 35.7636 40.511 35.7636 40.4862 35.7883C40.0889 35.8622 39.6916 36.2812 39.6171 36.7249C39.4185 37.7601 39.4185 37.7601 39.195 38.7213C39.195 38.746 39.195 38.746 39.195 38.746C39.0957 39.1403 39.344 39.3622 39.7165 39.2636C41.0325 38.8939 41.0325 38.8939 42.2243 38.4995C41.4049 40.7917 41.4049 40.7917 40.5359 42.7389C38.1521 40.841 38.0776 40.8903 34.2041 37.5136C34.502 34.2355 34.4772 34.2108 34.7007 30.5383ZM45.3033 21.0737C45.055 18.4857 45.0054 18.2638 44.5336 15.4047C44.4839 15.1336 44.5336 14.9364 44.6329 14.8378C44.6826 14.7639 44.7819 14.7392 44.906 14.7639C45.5268 15.0104 45.5268 15.0104 46.0979 15.2322C46.3214 15.3308 46.5697 15.7005 46.6442 16.0949C46.9421 17.4998 46.9421 17.4998 47.1904 18.9786C48.1588 19.299 48.0843 19.2744 48.8293 19.5702C46.371 14.7146 46.371 14.7639 42.423 9.93297C42.3982 9.90832 42.3733 9.85903 42.3237 9.83438C40.8835 9.26748 40.8835 9.26748 39.2695 8.77453C39.344 8.99636 39.3937 9.16889 39.4681 9.39072C40.66 9.76044 40.958 9.90832 41.9512 10.278C42.2492 10.4013 42.5968 10.771 42.7209 11.0914C44.2604 17.6723 44.186 17.4258 44.7074 25.2638C44.7074 25.7567 44.4343 26.1511 44.1115 26.1757C43.1679 26.225 43.1679 26.225 42.1498 26.2497C42.1498 26.2497 42.1498 26.2497 42.125 26.2497C41.7277 26.2743 41.4049 25.8553 41.4049 25.313C41.4049 23.5384 41.4049 23.5384 41.3304 21.7392C38.3011 21.5913 38.3011 21.5913 34.8248 21.468C40.0393 27.3588 40.0392 27.3588 43.6645 32.2144C43.6893 32.239 43.6893 32.2637 43.7142 32.2883C45.5516 31.8693 45.5516 31.8693 47.0415 31.4503C47.116 31.0559 47.116 31.0559 47.1656 30.6616C46.4207 30.8834 46.4207 30.8834 45.5765 31.0806C45.3033 31.1545 45.1295 30.8341 45.1792 30.3658C45.4275 27.0137 45.4523 26.5454 45.4523 23.9821C45.4275 22.9962 45.4026 22.0349 45.3033 21.0737ZM8.03268 7.41892C7.75955 7.86257 7.53607 8.30623 7.01463 9.26748C8.7776 11.3872 8.7776 11.3872 11.9311 14.9118C12.4525 11.7076 12.3284 12.0773 12.9491 9.29213C11.509 9.68649 11.4345 9.76044 10.0936 10.1301C9.74599 10.2287 9.54735 10.0562 9.64667 9.71114C9.6715 9.68649 9.6715 9.68649 9.64667 9.68649C9.94463 8.89777 10.0191 8.57735 10.3171 7.86257C10.4412 7.5668 10.8137 7.24638 11.1613 7.12315C11.1862 7.12315 11.1862 7.12315 11.211 7.0985C11.2607 7.07385 11.2855 7.07385 11.3351 7.0492C15.4322 5.74288 19.7527 4.95416 25.5134 4.78163C25.9852 4.78163 26.3825 5.0281 26.4073 5.34852C26.4569 6.45766 26.4569 6.45766 26.4818 7.66539C26.9784 7.69004 26.9784 7.69004 27.475 7.69004C27.3757 5.86612 27.3757 5.86612 27.2764 4.33797C27.2019 4.31332 27.1274 4.28868 27.028 4.23938C22.633 2.09504 22.633 2.09504 19.2064 1.15844C18.8588 1.82392 18.8588 1.82392 18.4863 2.68658C19.7279 2.4894 19.7279 2.4894 20.9694 2.31687C21.4163 2.26758 21.7143 2.39081 21.6895 2.58799C21.5902 3.17954 21.5902 3.17954 21.466 3.82037C21.4163 4.06685 21.0191 4.31332 20.5721 4.36262C20.5473 4.36262 20.5473 4.36262 20.5224 4.36262C13.5947 5.64429 13.5947 5.64429 8.38031 7.6161C8.05751 7.73934 8.05751 7.49286 8.10717 7.29568L8.03268 7.41892ZM24.5947 5.96471C21.7143 6.0633 21.7143 6.0633 18.9333 6.30978C23.9242 9.88367 23.9242 9.88367 29.8091 14.9611C29.8587 15.0104 29.8836 15.035 29.9332 15.0843C32.9129 15.2322 32.9129 15.2322 35.7187 15.454C35.6691 14.9857 35.6691 14.9857 35.6194 14.5174C34.0551 14.3695 34.0551 14.3695 32.4163 14.2463C32.317 14.2709 32.1928 14.2956 32.0686 14.2956C31.5224 14.2709 31.0506 13.8273 31.0258 13.3343C30.3802 6.5809 30.3802 6.5809 29.6353 2.41546C29.5856 2.24293 29.8836 2.11969 30.2808 2.16899C31.2741 2.31687 31.2741 2.31687 32.2425 2.4894C32.6149 2.56335 32.9874 2.76053 33.0867 2.95771C33.3847 3.69713 33.3847 3.69713 33.7075 4.53515C36.4637 5.20064 36.4637 5.20064 38.9219 5.98936C34.0303 2.66194 34.0303 2.66194 29.4366 0.591541C29.4118 0.591541 29.4118 0.591542 29.3869 0.566894C28.5179 0.492951 28.1951 0.443656 27.7233 0.419009C27.8723 0.443656 28.1951 0.542246 28.2447 0.739427C28.8158 3.45066 28.8407 3.42601 29.4366 8.5527C29.4614 8.94707 29.0642 9.26748 28.5427 9.24284C27.0777 9.19354 27.0777 9.19354 25.6127 9.16889C25.6127 9.16889 25.6127 9.16889 25.5879 9.16889C25.0416 9.16889 24.6195 8.82383 24.6195 8.42947C24.5698 7.12315 24.5698 7.12315 24.5947 5.96471ZM16.5496 6.65484C13.8679 7.17244 13.8679 7.24638 11.4593 7.88722C11.3848 8.10905 11.211 8.6513 11.1365 8.84848C11.2607 8.82383 12.4277 8.40482 13.3712 8.18299C14.1907 7.98581 14.8363 7.76398 14.6624 8.45411C13.4954 15.3554 13.5947 14.8625 13.0485 23.637C13.0485 23.6617 13.0485 23.6863 13.0485 23.711C13.0485 24.2778 12.6263 24.7462 12.1546 24.7215C10.8634 24.7215 10.8634 24.7215 9.6715 24.7215C9.6715 24.7215 9.6715 24.7215 9.64667 24.7215C9.22455 24.7462 8.90175 24.3025 8.90175 23.7603C8.95141 21.9856 8.95141 21.9856 9.05073 20.211C6.94014 20.4082 6.94014 20.4082 5.17717 20.63C8.67828 25.7814 8.67828 25.7813 13.7437 31.6968C13.7685 31.7461 13.8182 31.7954 13.843 31.8447C16.4751 32.0172 16.4751 32.0172 19.2561 32.1404C19.2313 31.6228 19.2313 31.6228 19.2064 31.0806C17.3193 31.0066 17.3193 31.0066 15.5067 30.9327C15.4818 30.9327 15.4818 30.9327 15.4818 30.9327C14.9604 30.908 14.5135 30.4397 14.4886 29.8728C14.439 20.704 14.439 20.704 15.1342 12.3484C15.1342 12.2991 15.159 12.2745 15.159 12.2252C15.159 12.102 15.159 12.102 15.1839 11.9787C15.1839 11.9787 15.1839 11.9787 15.1839 11.9541C15.2335 11.5104 15.6805 11.1161 16.1771 11.0421C17.3938 10.9189 17.9401 10.9189 19.2064 10.7956C19.7279 10.7463 20.1252 11.0914 20.1003 11.5597C19.9762 13.285 19.9762 13.285 19.8769 15.1336C23.6511 15.0104 23.1297 15.0104 26.9784 15.0104C21.2177 10.0316 21.2177 10.0316 16.5496 6.65484ZM16.4006 21.2462C16.3509 25.0912 16.3509 25.0912 16.4254 28.9362C18.3125 28.9855 18.3125 28.9855 20.2493 29.0348C20.8452 29.0348 21.317 29.5278 21.3419 30.1193C21.3667 31.6968 21.3667 31.6968 21.4163 33.2249C21.4163 33.7672 20.9694 34.1862 20.3983 34.1862C20.3735 34.1862 20.3735 34.1862 20.3735 34.1862C11.9062 33.5453 12.0801 33.57 5.94692 32.5348C5.64895 32.4608 5.37581 32.0665 5.30132 31.6228C5.30132 31.6228 5.30132 31.6228 5.30132 31.5982C5.07785 30.1686 5.02819 29.8975 4.90403 28.2954C4.73022 28.2708 4.58124 28.2708 4.43225 28.2708C4.68056 30.7355 4.68056 30.7355 5.05302 33.077C5.12751 33.1263 5.22683 33.2249 5.30132 33.3235C9.597 38.4995 9.59701 38.4995 14.7618 43.1579C14.2651 41.2847 14.2651 41.2847 13.7934 39.1403C12.229 38.8446 12.229 38.8446 10.764 38.5241C10.3668 38.4256 9.99429 38.0065 9.89497 37.6122C9.89497 37.6122 9.89497 37.6122 9.89497 37.5875C9.6715 36.577 9.6715 36.577 9.47285 35.5171C9.44802 35.4185 9.44802 35.32 9.47285 35.246C9.44802 34.8517 9.69633 34.5805 10.0688 34.6298C17.7414 35.5418 17.7414 35.5418 26.8542 35.7883C27.4253 35.7883 27.8723 36.1826 27.8723 36.6756C27.8226 38.3023 27.8226 38.3023 27.7481 39.8305C28.2447 39.8058 28.2447 39.8058 28.7662 39.7812C28.9152 36.8728 28.9152 36.8728 29.0145 33.6193C28.94 33.57 28.8655 33.5207 28.8158 33.4714C22.5089 27.4574 22.5089 27.4574 16.4006 21.2462ZM39.8406 43.9713C37.581 42.5417 37.581 42.5417 33.9309 39.7319C33.5833 41.753 33.5833 41.753 33.2109 43.5029C34.7007 43.2318 34.7007 43.2318 36.116 42.9361C36.5133 42.8375 36.7616 43.01 36.6623 43.3058C36.3643 44.0698 36.3643 44.0698 36.0912 44.76C35.9919 45.0065 35.5946 45.2529 35.2221 45.3762C35.2221 45.3762 35.2221 45.3762 35.1973 45.3762C28.3441 46.4607 28.5675 46.4853 21.1929 46.4114C20.7459 46.3621 20.3486 46.1402 20.299 45.8938C20.1003 44.9572 20.1003 44.9572 19.9265 43.922C19.6285 43.8973 19.2809 43.848 19.0078 43.8234C19.3802 45.6226 19.4299 45.6226 19.7775 47.0522C24.3712 48.9501 24.4208 48.9747 28.0958 49.6648C28.3441 49.1719 28.3441 49.1719 28.5675 48.4325C27.1522 48.5311 27.1522 48.5311 25.6872 48.605C25.3147 48.605 24.9671 48.5064 24.9671 48.3585C24.9423 47.9888 24.9423 47.9888 24.9423 47.5698C24.9423 47.3726 25.3147 47.2247 25.7369 47.2247C25.7865 47.2247 25.7865 47.2247 25.8114 47.2247C32.6646 46.5346 32.6646 46.5346 38.4253 44.8832C38.4501 44.8832 38.4501 44.8832 38.4749 44.8586C38.7729 44.7353 38.9219 44.7846 38.7977 44.9818C38.3756 45.5733 38.3756 45.5733 37.9535 46.1156C38.2018 45.9924 38.2018 45.9924 38.4501 45.8938C39.195 44.9818 39.195 44.9818 39.8406 43.9713ZM18.2132 46.4607C17.7414 45.1543 17.7663 45.0065 17.2945 43.0593C17.2448 42.8375 17.369 42.6649 17.5924 42.591C17.7166 42.517 17.9152 42.4924 18.1139 42.517C19.3057 42.6649 19.3057 42.6649 20.4976 42.7635C20.9942 42.7882 21.4412 43.1086 21.466 43.4537C21.5902 44.5874 21.5902 44.5874 21.7143 45.5733C24.1477 45.6966 24.1477 45.6966 26.6059 45.6719C21.2674 42.2706 21.2177 42.1966 15.3329 37.2918C15.308 37.2671 15.2584 37.2178 15.2087 37.1685C13.0485 36.8728 13.0485 36.8728 11.0372 36.5277C11.0868 36.8235 11.1613 37.0206 11.211 37.2918C12.7505 37.5629 12.7505 37.5629 14.4141 37.834C14.8859 37.8833 15.3329 38.3023 15.4074 38.746C16.6241 44.5381 16.5992 44.3903 17.9401 47.7423C17.9897 47.8656 17.7911 47.9149 17.4186 47.8409C16.4751 47.5944 16.4751 47.5944 15.5563 47.348C15.5563 47.348 15.5563 47.348 15.5315 47.348C15.2087 47.2494 14.8611 47.0522 14.7618 46.9043C14.3893 46.3621 14.3893 46.3621 14.0168 45.7459C11.8069 44.9325 11.8069 44.9325 9.87014 44.0452C12.5767 46.1649 15.7798 48.6296 19.6285 49.2705C19.0078 48.4571 18.5608 47.4712 18.2132 46.4607ZM2.02369 32.6087C1.32843 32.1404 1.45259 32.239 0.955976 31.7954C2.27199 35.8869 3.737 37.9326 6.26971 40.3234C7.51124 41.0382 7.51124 41.0382 8.97624 41.753C8.85209 41.4818 8.80243 41.4079 8.67828 41.1368C7.98302 40.8164 7.70988 40.6685 7.03946 40.3481C6.76632 40.2248 6.39387 39.9537 6.22005 39.5347C4.38259 34.0136 4.43225 34.1122 3.46386 27.2849C3.46386 27.2849 3.46386 27.2849 3.46386 27.2602C3.43903 26.8165 3.61284 26.4715 3.86115 26.4715C4.50674 26.5208 4.6309 26.5454 5.32615 26.5947C5.62412 26.6194 5.89725 27.0137 5.92208 27.5067C6.04624 29.2567 6.07107 29.2813 6.24488 30.9573C8.67828 31.3517 8.50446 31.3024 11.4096 31.6228C6.79115 25.8306 6.79115 25.8306 3.81149 20.8765C3.81149 20.8518 3.81149 20.8518 3.78666 20.8272C2.47064 21.0983 2.59479 21.049 1.60157 21.2955C1.57674 21.542 1.57674 21.6899 1.55191 21.961C2.09818 21.8377 1.9492 21.887 2.59479 21.7638C2.79344 21.7145 2.94242 22.0349 2.91759 22.4786C3.11623 29.651 3.11623 29.5031 4.45708 35.9361C4.5564 36.2812 4.48191 36.4784 4.28327 36.3552C3.78666 36.0594 3.78666 36.0594 3.31488 35.739C3.16589 35.6157 2.76861 35.1474 2.66928 34.827C2.34649 33.7672 2.34649 33.7672 2.02369 32.6087ZM2.37132 29.0348C2.17267 26.1511 2.17267 26.1511 2.17267 23.1934C1.57674 23.2427 1.57674 23.2427 1.08013 23.3166C0.955976 23.3412 0.881484 23.0455 0.906315 22.6511C0.980807 21.7391 0.980806 21.7392 1.08013 20.8272C1.12979 20.4328 1.27877 20.0878 1.3781 20.0385C1.3781 20.0385 1.3781 20.0385 1.40293 20.0385C4.43225 19.1512 4.43225 19.1512 9.87014 18.2885C9.89497 18.2885 9.89497 18.2885 9.94463 18.2885C10.3668 18.2392 10.6895 18.6336 10.6399 19.1512C10.5157 20.9504 10.5157 20.9504 10.4412 22.7743C10.8634 22.7497 10.8634 22.7497 11.3103 22.7497C11.4345 20.0631 11.4345 20.0631 11.6331 17.4751C11.6331 17.4505 11.6331 17.4505 11.6083 17.4505C8.25616 13.4083 8.25616 13.4083 6.36903 10.8203C5.74827 12.5703 5.74827 12.5703 5.202 14.4928C6.0959 14.1477 6.0959 14.1477 7.11395 13.8273C7.43675 13.7287 7.61056 13.9998 7.53607 14.4188C7.3126 15.6019 7.31259 15.6019 7.11395 16.8343C7.03946 17.3026 6.71666 17.7216 6.39386 17.7955C6.39386 17.7955 6.39387 17.7955 6.36903 17.8202C2.66928 18.8061 2.56996 18.88 0.881484 19.6934C0.509026 19.8166 0.409704 20.0138 0.285551 20.6547C0.260721 20.8765 0.21106 21.123 0.161399 21.3941C0.732501 24.7954 0.732501 24.7954 2.37132 29.0348Z" fill="#EA5B0C"/>
<path d="M72.1701 31.8939L71.152 27.6545H64.2243L63.1317 31.8939H55.5833L63.5787 8.87305H72.2445L79.7682 31.8939H72.1701ZM67.775 13.8765H67.6012C67.5764 14.123 67.5019 14.5666 67.3778 15.1335C67.2536 15.7251 66.608 18.2391 65.4161 22.7003H69.836L68.222 16.4398C68.0234 15.5525 67.8495 14.6899 67.775 13.8765Z" fill="white"/>
<path d="M94.4928 31.8939L92.7547 26.9397C92.4319 25.9785 91.985 25.1897 91.4635 24.6475C90.9421 24.0806 90.3461 23.8095 89.7254 23.8095H89.4522V31.8939H82.4749V8.87305H91.7615C95.0143 8.87305 97.398 9.39065 98.9375 10.4505C100.477 11.5103 101.247 13.0878 101.247 15.1828C101.247 16.7603 100.8 18.0912 99.9059 19.1511C99.012 20.2109 97.6711 20.9996 95.8833 21.468V21.5419C96.8517 21.8377 97.6711 22.3306 98.3416 22.9961C98.9872 23.6616 99.5831 24.6721 100.105 26.0031L102.389 31.8692H94.4928V31.8939ZM93.8224 16.1687C93.8224 15.4047 93.5741 14.7885 93.1023 14.3448C92.6305 13.9012 91.8856 13.6793 90.8676 13.6793H89.4274V18.9539H90.6938C91.6373 18.9539 92.3822 18.6828 92.9533 18.1652C93.5493 17.6229 93.8224 16.9574 93.8224 16.1687Z" fill="white"/>
<path d="M126.276 31.8939V19.2743C126.276 18.0912 126.325 16.7849 126.4 15.3553L126.45 14.2955H126.251C125.903 16.0948 125.63 17.3518 125.456 18.0419L122.055 31.8692H115.499L111.924 18.1898C111.824 17.8447 111.576 16.5384 111.154 14.2709H110.955C111.104 17.8694 111.179 20.1123 111.179 20.9996V31.8446H105.046V8.87304H115.499L118.678 21.3694C118.752 21.6158 118.851 22.1581 118.976 22.9221C119.1 23.7109 119.174 24.3271 119.199 24.7461H119.298C119.423 23.7848 119.596 22.6264 119.869 21.2954L122.849 8.84839H133.154V31.8692H126.276V31.8939Z" fill="white"/>
<path d="M152.248 31.8939L151.23 27.6545H144.303L143.21 31.8939H135.662L143.657 8.87305H152.323L159.847 31.8939H152.248ZM147.853 13.8765H147.68C147.655 14.123 147.58 14.5666 147.456 15.1335C147.332 15.7251 146.686 18.2391 145.495 22.7003H149.914L148.3 16.4398C148.102 15.5525 147.953 14.6899 147.853 13.8765Z" fill="white"/>
<path d="M178.743 31.8939L170.573 20.7778C169.928 19.8905 169.406 19.1018 168.984 18.4117H168.91C168.984 19.5454 169.009 20.8271 169.009 22.232V31.8939H162.553V8.87305H169.133L176.98 19.4222C177.079 19.5701 177.203 19.718 177.327 19.9152C177.476 20.1123 177.601 20.3095 177.75 20.5067C177.899 20.7039 178.023 20.9011 178.147 21.0982C178.271 21.2954 178.37 21.468 178.42 21.6158H178.494C178.42 21.1475 178.395 20.3342 178.395 19.1757V8.87305H184.851V31.8939H178.743Z" fill="white"/>
</svg>
