<?xml version="1.0" encoding="utf-8"?><svg viewBox="0 0 502.66 502.66" xmlns="http://www.w3.org/2000/svg" xmlns:xlink="http://www.w3.org/1999/xlink"><style>:root>svg{display:none}:root>svg:target{display:block}</style><svg viewBox="0 0 502.664 502.664" id="icon" xmlns="http://www.w3.org/2000/svg"><path d="M153.821 358.226L0 274.337v-46.463l153.821-83.414v54.574L46.636 250.523l107.185 53.431v54.272zm26.273 29.358L282.103 115.08h32.227L212.084 387.584h-31.99zm168.749-29.358v-54.272l107.164-52.999-107.164-52.59v-53.927l153.821 83.522v46.183l-153.821 84.083z"/></svg><svg viewBox="0 0 185 50" id="logo" xmlns="http://www.w3.org/2000/svg"><path d="M60.673 44.661c-.546.296-1.241.444-2.06.444-1.068 0-1.912-.345-2.533-1.01-.646-.666-.944-1.553-.944-2.662 0-1.184.348-2.12 1.068-2.86.72-.714 1.614-1.084 2.731-1.084.696 0 1.291.099 1.763.296v.912a3.533 3.533 0 00-1.763-.444c-.844 0-1.54.271-2.086.838-.52.567-.794 1.331-.794 2.268 0 .887.248 1.602.745 2.144s1.142.789 1.962.789c.744 0 1.39-.173 1.936-.493v.862h-.025zm7.499.296h-.869v-5.324c0-.468.025-.813.05-1.01h-.025c-.074.172-.149.32-.248.468l-3.824 5.866h-1.068v-7.37h.87v5.201c0 .567-.026.912-.05 1.085h.024c.075-.148.174-.32.298-.493l3.725-5.792h1.117v7.37zm7.028-.296c-.547.296-1.242.444-2.062.444-1.067 0-1.912-.345-2.532-1.01-.646-.666-.944-1.553-.944-2.662 0-1.184.348-2.12 1.068-2.86.72-.714 1.614-1.084 2.731-1.084.695 0 1.291.099 1.763.296v.912a3.533 3.533 0 00-1.763-.444c-.844 0-1.54.271-2.086.838-.521.567-.794 1.331-.794 2.268 0 .887.248 1.602.745 2.144.496.542 1.142.789 1.961.789.745 0 1.39-.173 1.937-.493v.862H75.2zm5.884-6.285H78.95v6.581h-.87v-6.58h-2.135v-.79h5.165v.79h-.025zm5.116 6.581h-3.95v-7.37h3.774v.79H83.12v2.44h2.682v.764H83.12v2.587h3.08v.79zm8.988 0h-.87v-4.954c0-.394.026-.863.075-1.43-.074.321-.149.567-.223.715l-2.533 5.67h-.422l-2.533-5.62a4.263 4.263 0 01-.223-.764h-.025c.025.295.05.764.05 1.454v4.93h-.845v-7.37h1.143l2.284 5.151c.174.394.298.69.348.887h.025l.347-.912 2.334-5.126h1.093v7.37h-.025zm7.548 0h-.869v-3.352h-3.849v3.352h-.869v-7.37h.87v3.23h3.848v-3.23h.869v7.37zm7.698 0h-.969l-.794-2.07h-3.154l-.745 2.07h-.943l2.855-7.37h.894l2.856 7.37zm-2.036-2.834l-1.167-3.13c-.05-.099-.075-.272-.125-.493h-.024c-.025.197-.075.37-.124.493l-1.168 3.13h2.608zm7.449 2.834h-.869v-3.13h-1.093a.85.85 0 00-.546.173c-.149.123-.323.37-.497.739l-.943 2.218h-1.043l1.117-2.465c.075-.172.174-.32.323-.517.149-.173.323-.296.522-.394v-.025c-.497-.099-.869-.32-1.143-.666a1.952 1.952 0 01-.422-1.232c0-.616.224-1.134.671-1.504.447-.37 1.018-.566 1.738-.566h2.16v7.37h.025zm-.894-3.919v-2.662h-1.192c-.496 0-.869.124-1.142.345-.273.222-.397.543-.397.962 0 .419.149.74.422.986s.645.37 1.117.37h1.192zm11.72 3.919h-.869v-5.324c0-.468.025-.813.05-1.01h-.025c-.075.172-.149.32-.248.468l-3.824 5.866h-1.068v-7.37h.869v5.201c0 .567-.025.912-.05 1.085h.025c.075-.148.174-.32.298-.493l3.725-5.792h1.117v7.37zm7.549 0h-.869v-3.352h-3.849v3.352h-.869v-7.37h.869v3.23h3.849v-3.23h.869v7.37zm6.331-6.581h-2.135v6.581h-.869v-6.58h-2.135v-.79h5.164v.79h-.025zm5.116 6.581h-3.949v-7.37h3.775v.79h-2.905v2.44h2.681v.764h-2.681v2.587h3.054v.79h.025zm5.288-6.556h-2.979v6.58h-.869v-7.369h3.848v.789zm2.012 3.771v2.785h-.869v-7.37h2.036c.794 0 1.415.198 1.837.567.447.395.646.937.646 1.627s-.249 1.282-.72 1.726c-.497.443-1.143.665-1.962.665h-.968zm0-3.796v3.032h.918c.596 0 1.068-.148 1.366-.419.323-.271.472-.665.472-1.158 0-.962-.571-1.455-1.738-1.455h-1.018zm10.826 6.581h-.969l-.794-2.07h-3.154l-.745 2.07h-.968l2.856-7.37h.893l2.881 7.37zm-2.036-2.834l-1.167-3.13c-.05-.099-.075-.272-.125-.493h-.024c-.025.197-.075.37-.124.493l-1.168 3.13h2.608zm9.708 4.807h-.794v-1.973h-5.786v-7.37h.869v6.581h3.849v-6.58h.869v6.58h.993v2.761zm7.276-1.973h-.869v-5.324c0-.468.024-.813.049-1.01h-.025c-.074.172-.149.32-.248.468l-3.824 5.866h-1.067v-7.37h.869v5.201c0 .567-.025.912-.05 1.085h.025c.074-.148.174-.32.298-.493l3.724-5.792h1.118v7.37zm6.257 0h-.869v-3.13h-1.093a.85.85 0 00-.546.173c-.149.123-.323.37-.497.739l-.943 2.218h-1.043l1.117-2.465c.075-.172.174-.32.323-.517.149-.173.323-.296.522-.394v-.025c-.497-.099-.869-.32-1.143-.666a1.952 1.952 0 01-.422-1.232c0-.616.224-1.134.671-1.504.447-.37 1.018-.566 1.738-.566h2.16v7.37H185zm-.869-3.919v-2.662h-1.217c-.496 0-.869.124-1.142.345-.273.222-.397.543-.397.962 0 .419.149.74.422.986s.645.37 1.117.37h1.217z"/><path fill-rule="evenodd" clip-rule="evenodd" d="M23.502.148c0 .025 0 .025 0 0l-.1.444c-.024.098.274.197.671.172C25.49.74 25.49.74 26.88.79c.149.961.149.961.273 2.317-4.32-1.8-4.32-1.8-7.623-2.465.323-.345.398-.42.596-.542.124.049.199.123.695.049 1.092-.051 1.961-.1 2.681-.149v.148zm15.072 3.55c.472.467.894 1.01 1.863 2.267.124.222.471.517.72.64l.025.025c.868.468.868.468 1.638.937.124.222.124.222.273.419-1.216-.715-1.216-.715-2.632-1.38a.321.321 0 00-.099-.074c-4.643-3.426-4.643-3.426-9.212-5.67 1.887.42 1.887.42 3.625.937.348.37.348.37.72.789.1.148.472.345.795.468.869.32.869.32 1.663.641.398.173.522.123.621 0zM49.6 18.707c.025.098.05.221.075.32.074.296.148.591.223.616v.025c.1.123.149.148.199.222.05.197.074.419.124.616-.224-.271-.248-.296-.72-.616 0-.025-.025-.05-.025-.074-2.185-4.61-2.185-4.61-5.736-9.391 1.639.912 1.639.912 2.88 1.824.398.936.398.936.745 1.922.1.32.298.666.447.79l.646.541c.1.148.869 2.366 1.142 3.204zm.795 3.031c-.82-.591-.77-.567-3.228-1.282-.224-.049-.447-.443-.497-.887v-.024c-.223-1.529-.248-1.529-.521-3.008-.15-.049-.373-.098-.547-.172.447 2.76.497 2.662.77 5.57 2.16 4.585 2.26 4.708 3.104 8.208.323-2.39.323-2.39.447-4.88-.348.024-.348.024-.795.024-.149.025-.248-.32-.248-.69v-.024c-.025-.986-.025-.986-.075-1.972-.024-.395.075-.69.2-.666h.024c1.068.345 1.167.395 1.465.616-.05-.221-.075-.517-.1-.813zM46.52 38.5c.124-.96.074-1.084-.497-3.056 1.093-.567 1.093-.567 1.962-1.183-.199 1.405-.72 3.13-1.465 4.24zm-.596.863c-.074.123-.174.222-.248.345-.646.666-.77.764-1.838 1.627.497-.838.497-.838.993-1.8.125-.27.075-.394-.124-.246-.521.32-.521.32-1.092.641-.124.074-.298.271-.422.42-.249.344-.745 1.231-1.142 1.848-.596.96-1.242 1.799-2.235 2.563 1.639-2.317 1.812-2.76 3.675-7.271.099-.37-.05-.592-.348-.468-1.142.37-1.142.37-2.409.714.075-.27.075-.27.125-.517 2.135-.592 2.135-.592 3.923-1.233 1.018 2.194 1.043 2.243 1.142 3.377zM36.041 47.2c-.496 0-1.142-.025-2.383-.32 2.011-.543 2.011-.543 3.849-1.159-.274.444-.795 1.331-1.465 1.48zm.075.37a25.94 25.94 0 01-3.427 1.33c.373-.369.2-.443-.447-.295-.297.074-.347.074-.869.197-.05 0-.124.025-.198.025-.298.05-.571.148-.695.222-.05.024-.075.049-.075.049-.273.296-.373.37-.521.468-.298.05-.621.099-.92.148.473-.37.522-.468 1.143-1.75.05-.148-.174-.32-.546-.296.025-.049.025-.024.074-.148.497-.049 1.093-.147 2.011-.27h.025c2.781.542 2.93.59 4.445.32zm-8.219 2.366c-.77.074-1.564.074-2.359.05-.645-.025-1.216-.05-1.688-.075l.025-.024c-.05-.124-.05-.124-.1-.32 0-.075-.323-.149-.695-.173-1.167-.099-1.167-.099-2.334-.247-.273-.517-.372-.517-.67-1.232 2.681.937 3.724 1.282 4.966 1.528.819.172 2.085.419 2.88.444l-.025.049zM4.01 38.721c2.011 1.997 2.16 2.07 5.96 4.24.322.148.471.024.322-.247-.323-.74-.323-.74-.695-1.577-.124-.296-.472-.666-.795-.789-1.018-.419-1.018-.419-1.936-.838-.77-2.12-.77-2.12-1.44-4.535 4.444 5.127 4.444 5.127 9.659 9.514.024.025.074.05.124.074.62 1.479.62 1.479 1.192 2.612-.323-.073-.323-.073-.67-.172-.324-.567-.324-.567-.671-1.233-.1-.197-.398-.419-.696-.517a1.178 1.178 0 00-.372-.148c-5.016-1.996-5.016-1.996-8.368-4.289-.223-.246-1.068-1.158-1.614-2.095zM.335 29.996c-.05-.222-.074-.419-.124-.64.1.196.199.27.571.566.075.05.124-.172.075-.518-.124-1.01-.124-1.01-.224-1.996-.025-.37-.124-.69-.198-.69-.224-.05-.224-.05-.398-.099-.05-1.75-.05-1.75 0-3.5.621 3.007.72 3.451 1.838 6.138.248.616.596 1.43.943 2.045.398 1.997.348 1.874.845 3.772-.174-.1-.274-.198-.423-.296-.322-1.183-.322-1.183-.62-2.44-.075-.37-.274-.765-.423-.814-1.34-.862-1.44-.912-1.862-1.528zm2.26-16.686l.521-.962c.224-.32.422-.517 1.018-1.133-.397.838-.397.838-.794 1.75-.124.295-.1.443.05.32l.024-.025c.447-.32.273-.221.745-.517.199-.099.571-.592.695-.912.472-.912.969-1.947 1.664-2.588l-.372.74c-.547 1.158-.994 2.513-1.962 5.323-.025.148-.05.247-.025.345-.025.296.075.468.273.42l.025-.025c.844-.272.844-.272 1.788-.567-.075.394-.075.394-.15.813-1.812.542-1.812.542-3.227 1.06a.906.906 0 000-.37c-.472-2.267-.497-2.415-.273-3.672zm5.91-7.271c.198-.247.422-.493.695-.79.323-.27.645-.517.993-.763.745-.05.869-.025 2.558.64-1.788.666-1.788.666-3.353 1.381.497-.789.497-.789.994-1.479.149-.172.024-.197-.2-.074-.595.345-.595.345-1.141.69-.224.124-.398.271-.547.395zm2.681-2.219c.571-.049 2.285.198 3.328.79 2.607-.617 2.607-.617 5.437-1.06.05-.223.1-.395.15-.592-1.292.172-1.292.172-2.533.419-.398.074-.67-.025-.572-.222.025-.025 0-.025.025-.05.646-1.33.596-1.158 1.217-2.094 0-.025.025-.05.05-.074.372-.345.471-.444.695-.543-.248.05-.497.124-.72.198-.522.295-.62.419-1.366 1.232-.074.123-.447.32-.77.394-.918.271-.918.271-1.787.567h-.025c-.298.099-.447.099-.348-.05.373-.393.373-.393.77-.763-1.266.567-2.434 1.109-3.55 1.848zm31.982 3.525c.323.444.67 1.134.944 1.577.148.272.074.345-.125.198C39.543 6.975 39.692 7 33.36 5.373c-.422-.074-.894-.394-.969-.665-.248-.888-.198-.863-.422-1.627-.273-.05-.422-.074-.695-.123.348 1.232.323 1.109.646 2.588.149.098.273.222.397.295 5.512 4.511 5.512 4.511 10.478 9.884-.496-2.44-.397-2.194-.968-4.387-1.093-.394-1.44-.542-2.706-.986-.398-.099-.795-.493-.894-.863-.249-.862-.249-.862-.497-1.676-.025-.074-.025-.148-.025-.197-.074-.271.174-.419.522-.296 4.792 1.898 5.015 1.972 7.772 3.845.248.173.496.345.744.543-1.042-1.726-2.284-3.18-3.6-4.462l.025.099zm-10.95-.123c.372 2.44.372 2.44.695 5.299 1.738.172 1.738.172 3.402.37.471.049.894.493.968.96.149 1.332.149 1.332.298 2.712.05.518-.298.912-.795.863h-.024c-8.989-.42-8.468-.42-17.978-.296a.883.883 0 01-.943-.937v-.024c.124-1.849.124-1.849.273-3.599-.323.025-.844.025-1.192.05-.248 2.76-.248 2.76-.422 5.742.025 0 .025 0 .025.025 6.108 6.113 6.108 6.113 12.54 12.447.049-3.377.049-3.13.049-6.556h-4.346a1.098 1.098 0 01-1.092-1.085v-.024c0-1.454-.025-1.898 0-3.328 0-.591.497-1.06 1.093-1.06 9.336.198 9.36.395 16.959.962a.704.704 0 01.496.296c.249.147.447.492.472.887.075 1.7.075 1.7.124 3.45.348 0 .497 0 .844.025-.124-3.229-.198-3.746-.57-6.334a.432.432 0 01-.1-.124c-5.016-5.718-5.016-5.718-10.776-10.721zM25.86 21.098c0 .271.025.715.025.986 1.986.05 2.408.074 4.296.197.596 0 1.067.493 1.067 1.085-.124 9.514-.124 9.12-.67 17.08-.05.395-.472.765-1.018.79-1.416.073-1.416.073-2.856.123h-.025c-.546 0-.968-.32-.968-.715.025-1.356.025-1.356.025-2.835-4.023-.049-4.023-.049-7.921-.295 5.96 4.806 5.96 4.806 11.124 8.01.025 0 .025.025.05.025 3.054-.345 3.054-.345 5.91-.888.099-.246.099-.246.173-.493-1.39.272-1.39.272-2.855.518h-.025c-.373.05-.695-.074-.72-.296a.277.277 0 01-.075-.27c.82-6.113.82-6.113 1.341-14.543v-.025c.025-.567.472-1.06 1.043-1.06l2.607-.098c.497-.025.894.419.87.986-.125 1.947-.125 1.947-.274 3.845 2.632-.296 2.632-.296 4.941-.64-4.146-5.029-4.146-5.029-9.733-11.018-.05-.074-.174-.222-.224-.296-2.83-.099-3.327-.123-6.108-.173zm8.84 9.44c.273 0 .62-.049.894-.074-.125 1.947-.125 1.947-.274 3.82v.025c-.05.518.323.863.82.814 4.32-.69 5.86-.937 7.449-1.356.745-.197 1.49-.394 2.558-.715.77-.246 1.29-.27 1.465-1.183.198-1.084.198-1.084.347-2.193.05-.42-.05-.715-.248-.666-.67.148-.67.148-1.44.271.174-2.44.174-2.44.223-4.855 1.887 4.14 1.887 4.14 2.583 7.27v.05c-.15.37-.298.74-.472 1.085-.025-.025-.05-.025-.075 0-2.806 1.454-2.806 1.454-7.846 2.883-.05 0-.1.025-.15.05-.024 0-.024 0-.049.024-.397.074-.794.493-.869.937-.198 1.035-.198 1.035-.422 1.996v.025c-.1.394.149.616.522.518 1.316-.37 1.316-.37 2.507-.765-.82 2.293-.82 2.293-1.688 4.24-2.384-1.898-2.458-1.849-6.332-5.225.298-3.279.273-3.303.497-6.976zm10.602-9.464c-.248-2.588-.298-2.81-.77-5.67-.05-.27 0-.468.1-.566.05-.074.149-.099.273-.074.62.246.62.246 1.192.468.223.099.472.469.546.863.298 1.405.298 1.405.546 2.884.969.32.894.295 1.64.591-2.459-4.855-2.459-4.806-6.407-9.637-.025-.025-.05-.074-.1-.099-1.44-.567-1.44-.567-3.053-1.06.074.222.124.395.198.617 1.192.37 1.49.517 2.483.887.298.123.646.493.77.813 1.54 6.581 1.465 6.335 1.986 14.173 0 .493-.273.887-.596.912-.943.049-.943.049-1.961.074h-.025c-.397.024-.72-.395-.72-.937 0-1.775 0-1.775-.075-3.574-3.029-.148-3.029-.148-6.505-.271 5.214 5.89 5.214 5.89 8.84 10.746.024.025.024.05.05.074 1.837-.419 1.837-.419 3.326-.838.075-.394.075-.394.125-.788-.745.221-.745.221-1.59.419-.273.073-.447-.247-.397-.715.248-3.352.273-3.82.273-6.384-.024-.986-.05-1.947-.149-2.908zM8.033 7.419c-.273.444-.497.887-1.018 1.848 1.763 2.12 1.763 2.12 4.916 5.645.522-3.204.397-2.835 1.018-5.62-1.44.394-1.514.468-2.855.838-.348.099-.547-.074-.447-.419.024-.025.024-.025 0-.025.298-.788.372-1.109.67-1.823.124-.296.497-.617.844-.74.025 0 .025 0 .05-.025.05-.024.075-.024.124-.049 4.097-1.306 8.418-2.095 14.178-2.267.472 0 .87.246.894.567.05 1.109.05 1.109.075 2.316.496.025.496.025.993.025-.1-1.824-.1-1.824-.199-3.352-.074-.025-.149-.05-.248-.099-4.395-2.144-4.395-2.144-7.822-3.08-.347.665-.347.665-.72 1.528 1.242-.198 1.242-.198 2.483-.37.447-.05.745.074.72.271-.099.592-.099.592-.223 1.232-.05.247-.447.493-.894.543h-.05C13.595 5.644 13.595 5.644 8.38 7.616c-.322.123-.322-.123-.273-.32l-.074.123zm16.562-1.454c-2.88.098-2.88.098-5.662.345 4.991 3.574 4.991 3.574 10.876 8.651l.124.123c2.98.148 2.98.148 5.786.37l-.1-.937c-1.564-.147-1.564-.147-3.203-.27a1.504 1.504 0 01-.347.049c-.547-.025-1.018-.469-1.043-.962-.646-6.753-.646-6.753-1.39-10.919-.05-.172.248-.295.645-.246.993.148.993.148 1.962.32.372.074.744.272.844.469.298.74.298.74.62 1.577 2.757.666 2.757.666 5.215 1.454C34.03 2.662 34.03 2.662 29.437.592c-.025 0-.025 0-.05-.025-.87-.074-1.192-.123-1.664-.148.15.025.472.123.522.32.57 2.712.596 2.687 1.192 7.814.024.394-.373.714-.894.69-1.465-.05-1.465-.05-2.93-.074h-.025c-.546 0-.969-.345-.969-.74-.05-1.306-.05-1.306-.024-2.464zm-8.045.69c-2.682.517-2.682.591-5.09 1.232-.075.222-.249.764-.324.961.125-.024 1.292-.443 2.235-.665.82-.197 1.465-.419 1.291.271-1.167 6.901-1.067 6.409-1.614 15.183v.074c0 .567-.422 1.035-.893 1.01H9.647c-.422.025-.745-.419-.745-.96.05-1.775.05-1.775.149-3.55-2.11.197-2.11.197-3.874.419 3.501 5.151 3.501 5.151 8.567 11.067.024.05.074.098.099.148 2.632.172 2.632.172 5.413.295l-.05-1.06c-1.887-.073-1.887-.073-3.7-.147h-.024c-.522-.025-.968-.493-.993-1.06-.05-9.169-.05-9.169.645-17.525 0-.049.025-.074.025-.123 0-.123 0-.123.025-.246v-.025c.05-.444.497-.838.993-.912 1.217-.123 1.763-.123 3.03-.246.52-.05.918.295.893.764-.124 1.725-.124 1.725-.223 3.574 3.774-.124 3.253-.124 7.101-.124-5.76-4.978-5.76-4.978-10.428-8.355zm-.15 14.591c-.05 3.845-.05 3.845.025 7.69 1.887.05 1.887.05 3.824.099.596 0 1.068.493 1.093 1.084.025 1.578.025 1.578.074 3.106 0 .542-.447.961-1.018.961h-.024c-8.468-.64-8.294-.616-14.427-1.651-.298-.074-.571-.468-.646-.912v-.025c-.223-1.43-.273-1.7-.397-3.303-.174-.024-.323-.024-.472-.024.249 2.464.249 2.464.621 4.806.075.05.174.148.248.247 4.296 5.175 4.296 5.175 9.46 9.834-.496-1.873-.496-1.873-.968-4.018-1.564-.295-1.564-.295-3.029-.616-.397-.098-.77-.517-.869-.912v-.025c-.223-1.01-.223-1.01-.422-2.07a.5.5 0 010-.271c-.025-.394.223-.666.596-.616 7.672.912 7.672.912 16.785 1.158.571 0 1.018.395 1.018.888-.05 1.626-.05 1.626-.124 3.154l1.018-.049c.15-2.908.15-2.908.249-6.162-.075-.049-.15-.098-.2-.148-6.306-6.014-6.306-6.014-12.414-12.225zm23.44 22.725c-2.259-1.43-2.259-1.43-5.91-4.24-.347 2.022-.347 2.022-.72 3.772 1.49-.271 1.49-.271 2.906-.567.397-.099.646.074.546.37-.298.764-.298.764-.57 1.454-.1.247-.497.493-.87.616h-.025c-6.853 1.085-6.63 1.11-14.004 1.035-.447-.049-.844-.27-.894-.517-.199-.937-.199-.937-.372-1.972-.299-.025-.646-.074-.92-.099.373 1.8.423 1.8.77 3.23 4.594 1.897 4.644 1.922 8.319 2.612.248-.493.248-.493.471-1.233-1.415.1-1.415.1-2.88.173-.372 0-.72-.099-.72-.246-.025-.37-.025-.37-.025-.79 0-.196.373-.344.795-.344h.074c6.854-.69 6.854-.69 12.614-2.342.025 0 .025 0 .05-.024.298-.124.447-.074.323.123-.422.591-.422.591-.845 1.134.249-.124.249-.124.497-.222.745-.912.745-.912 1.39-1.923zm-21.627 2.49c-.472-1.307-.447-1.454-.919-3.402-.05-.221.075-.394.298-.468.125-.074.323-.099.522-.074 1.192.148 1.192.148 2.384.246.496.025.943.346.968.69.124 1.134.124 1.134.248 2.12 2.434.124 2.434.124 4.892.099-5.339-3.401-5.388-3.475-11.273-8.38l-.124-.123c-2.16-.296-2.16-.296-4.172-.641.05.296.124.493.174.764 1.54.27 1.54.27 3.203.542.472.05.919.468.993.912 1.217 5.792 1.192 5.644 2.533 8.996.05.124-.149.173-.521.099-.944-.247-.944-.247-1.863-.493h-.024c-.323-.099-.67-.296-.77-.444-.373-.542-.373-.542-.745-1.158-2.21-.814-2.21-.814-4.147-1.7 2.707 2.119 5.91 4.584 9.758 5.224-.62-.813-1.067-1.799-1.415-2.81zM2.023 32.609c-.695-.469-.57-.37-1.067-.814 1.316 4.092 2.781 6.138 5.314 8.528 1.241.715 1.241.715 2.706 1.43-.124-.271-.174-.345-.298-.616-.695-.32-.968-.468-1.639-.789-.273-.123-.645-.394-.819-.813-1.837-5.521-1.788-5.423-2.756-12.25v-.025c-.025-.444.149-.789.397-.789.646.05.77.074 1.465.124.298.024.571.419.596.912.124 1.75.15 1.774.323 3.45 2.433.395 2.26.345 5.165.666-4.62-5.793-4.62-5.793-7.6-10.747 0-.024 0-.024-.024-.049-1.316.271-1.192.222-2.185.468-.025.247-.025.395-.05.666.546-.123.397-.074 1.043-.197.198-.05.347.27.323.715.198 7.172.198 7.024 1.54 13.457.098.345.024.542-.175.42-.496-.297-.496-.297-.968-.617-.15-.123-.546-.592-.646-.912-.323-1.06-.323-1.06-.645-2.218zm.348-3.574c-.198-2.884-.198-2.884-.198-5.842-.596.05-.596.05-1.093.124-.124.024-.199-.271-.174-.666.075-.912.075-.912.174-1.824.05-.394.199-.74.298-.789h.025c3.03-.887 3.03-.887 8.467-1.75h.075c.422-.049.745.346.695.863-.124 1.8-.124 1.8-.199 3.623.422-.024.422-.024.87-.024.123-2.687.123-2.687.322-5.275 0-.024 0-.024-.025-.024-3.352-4.043-3.352-4.043-5.239-6.63-.62 1.75-.62 1.75-1.167 3.672.894-.345.894-.345 1.912-.666.323-.098.497.173.422.592-.223 1.183-.223 1.183-.422 2.415-.075.469-.397.888-.72.962l-.025.024c-3.7.986-3.799 1.06-5.488 1.873-.372.124-.471.32-.595.962-.025.221-.075.468-.125.74.572 3.4.572 3.4 2.21 7.64z"/><path d="M72.17 31.894l-1.018-4.24h-6.928l-1.092 4.24h-7.549l7.996-23.02h8.666l7.523 23.02H72.17zm-4.395-18.017h-.174c-.025.246-.1.69-.223 1.256-.124.592-.77 3.106-1.962 7.567h4.42l-1.614-6.26c-.199-.888-.372-1.75-.447-2.564zm26.718 18.017l-1.738-4.954c-.323-.962-.77-1.75-1.291-2.293-.522-.566-1.118-.837-1.739-.837h-.273v8.084h-6.977V8.874h9.287c3.252-.001 5.636.517 7.175 1.576 1.54 1.06 2.31 2.638 2.31 4.733 0 1.577-.447 2.908-1.341 3.968-.894 1.06-2.235 1.849-4.023 2.317v.074a5.874 5.874 0 012.459 1.454c.645.666 1.241 1.676 1.763 3.007l2.284 5.866h-7.896v.025zm-.67-15.725c0-.764-.249-1.38-.72-1.824-.472-.444-1.217-.666-2.235-.666h-1.44v5.275h1.266c.943 0 1.688-.271 2.26-.789.595-.542.868-1.208.868-1.996zm32.453 15.725v-12.62c0-1.183.049-2.49.124-3.919l.05-1.06h-.199c-.348 1.8-.621 3.057-.795 3.747l-3.401 13.827h-6.556l-3.575-13.68c-.1-.344-.348-1.65-.77-3.918h-.199c.149 3.598.224 5.841.224 6.729v10.845h-6.133V8.873h10.453l3.179 12.496c.074.247.173.79.298 1.553.124.789.198 1.405.223 1.824h.099c.125-.961.298-2.12.571-3.45l2.98-12.448h10.305V31.87h-6.878v.025zm25.972 0l-1.018-4.24h-6.927l-1.093 4.24h-7.548l7.995-23.02h8.666l7.524 23.02h-7.599zm-4.395-18.017h-.173c-.025.246-.1.69-.224 1.256-.124.592-.77 3.106-1.961 7.567h4.419l-1.614-6.26a26.913 26.913 0 01-.447-2.564zm30.89 18.017l-8.17-11.116a35.822 35.822 0 01-1.589-2.366h-.074c.074 1.133.099 2.415.099 3.82v9.662h-6.456V8.874h6.58l7.847 10.548c.099.148.223.296.347.493.149.197.274.395.423.592.149.197.273.394.397.591.124.197.223.37.273.518h.074c-.074-.468-.099-1.282-.099-2.44V8.873h6.456v23.02h-6.108z"/></svg></svg>